<mxfile host="app.diagrams.net" agent="Mozilla/5.0 (Windows NT 10.0; Win64; x64) AppleWebKit/537.36 (KHTML, like Gecko) Chrome/127.0.0.0 Safari/537.36" version="24.7.7">
  <diagram name="Page-1" id="ayz9zB_SBlvuSXgd9aTi">
    <mxGraphModel dx="1150" dy="946" grid="0" gridSize="10" guides="1" tooltips="1" connect="1" arrows="1" fold="1" page="0" pageScale="1" pageWidth="850" pageHeight="1100" math="0" shadow="0">
      <root>
        <mxCell id="0" />
        <mxCell id="1" parent="0" />
        <mxCell id="H_vDy73RLhmVP92egl3P-1" value="" style="rounded=0;whiteSpace=wrap;html=1;strokeWidth=4;" vertex="1" parent="1">
          <mxGeometry x="-582" y="-214" width="905" height="444" as="geometry" />
        </mxCell>
        <mxCell id="H_vDy73RLhmVP92egl3P-2" value="" style="rounded=0;whiteSpace=wrap;html=1;strokeWidth=2;" vertex="1" parent="1">
          <mxGeometry x="-535" y="-154" width="302" height="245" as="geometry" />
        </mxCell>
        <mxCell id="H_vDy73RLhmVP92egl3P-3" value="Game Window" style="text;html=1;align=center;verticalAlign=middle;whiteSpace=wrap;rounded=0;fontSize=16;" vertex="1" parent="1">
          <mxGeometry x="-449.5" y="-143" width="131" height="30" as="geometry" />
        </mxCell>
        <mxCell id="H_vDy73RLhmVP92egl3P-4" value="&lt;font style=&quot;font-size: 12px;&quot;&gt;1. Use mouse to select pieces to swap&lt;/font&gt;" style="text;html=1;align=center;verticalAlign=middle;whiteSpace=wrap;rounded=0;fontSize=16;" vertex="1" parent="1">
          <mxGeometry x="-417" y="-12" width="133" height="68" as="geometry" />
        </mxCell>
        <mxCell id="H_vDy73RLhmVP92egl3P-6" value="" style="shape=image;verticalLabelPosition=bottom;labelBackgroundColor=default;verticalAlign=top;aspect=fixed;imageAspect=0;image=data:image/png,iVBORw0KGgoAAAANSUhEUgAABrAAAAAuCAYAAABgblkuAAAAAXNSR0IArs4c6QAAAARnQU1BAACxjwv8YQUAAAAJcEhZcwAADsMAAA7DAcdvqGQAAA59SURBVHhe7d15cNTnfcfxzx46VlohBJIQCCQwhxCY08R0uAx2cd3a2I7j2GndHJM0cWIHZjzNQcedNplJ7cSJm5bEY9eZZgb+iJ2DqXFiu04N8YFPYmyICYc5DBJCCJBAx+5Ke3Wfnx55WUlIAq2kNX6/xI99nu/vt6sf6Kd/ns88z+O6ftZX40rIzSpQoa9YOZ48ZXnz5HV7TRkAAAAAAAAAAAAYVm7zV4m/UpVjrtRoX5l82aMIrwAAAAAAAAAAADBi3BVj5mhM/gTbBQAAAAAAAAAAAEaW25flt00AAAAAAAAAAABg5DlLCAIAAAAAAAAAAACZggALAAAAAAAAAAAAGcW1dtXGuG0DGaE92qaa5l063rJPgY5GdcRC6ogGFYtH7RUAAAAAAAAAACBTuF0eZXt8ynbnKi+7SOUFs1Qxar5Tu1QEWMgYJ9ve155T23QqcEQejzdxeOR2u+RymYPJggAAAAAAAAAAZKp4PJY44orF4opGI4kjqpL8Ss0uXq1x+dPsVQNHgIUR19R+XG/XbVFjqEZZWdnyer32DAAAAAAAAAAA+KiKRCIKhzs01jdJC8ffoqKccnumf0xrwYiqad6t/zv0iFqi9fL58givAAAAAAAAAAC4TJgxfzP23xyu1wuHH9Wxlt32TP8IsDBiDjRt1+u1TyjXl5t4iLNsFQAAAAAAAAAAXE68WVnKyc3W6zVP6EDjy7baN5YQxIjYn3hAd518zklee+N156jMN0Pj86rlzx6rHLffqYeiLWoNn1F9YJ/qgwcUibU79bSJJ34dXK6uFwAAAAAAAAAAPpY+HCdP84B5MBjQwrI1mla0xFZ6R4CFYVfXulfbj22SL69neJXjyde0wqWq9C+Ux933rKxoLKyjLTt1sPlVtUfbbPUSJX4L4okvF6kVAAAAAAAAAAAp4vG4XIkv8ycdgsGglk36e03wz7KVnlhCEMOqNdyo12p/oVyfz1aSSn3TtWrCvbpi1OJ+wyvDXHNF4WLnPWa21qUxyZVJj02ATHgFAAAAAAAAAEB3zvi5M4Qed4bUBys3N1ev1vxCreHTttITARaG1Ru1T8rjdaWEReZhn1F4ja4uvVNZnhxbHTjznkWld2h64bKL/8Ux1xNcAQAAAAAAAAAwAGYe1uATLJMReL1u7ajbbCs9EWBh2JwKHFFjqCbxUKbOrpron6OqohWDmgFl3juzaJUm+efZysCkISgGAAAAAAAAAOBjo3NcffCj696sLDW0HdHpwFFbSeVZPOWT37FtfIx4s9y669tLNW95hf78Zq1isaGPcv544jfqUJvc7mRuOjZ3shaV3C6Xq/csderccVp03RSt/FS1lt8yU1WLJujs6YDOJY7elPqmqqm9ToFIk630wazZyewrAAAAAAAAAAAGzBlXN5FCGsbXTTbQEmrQ5NFX2UqSa+2qjWlLLiqri+V2u3RkzylbGVlTZpc4wczRvRdeQ3GouT0uLVtTpZW3V6t4QoFamkKqOXBGB3ae0B8279UNn52rv/78PK27dpN9x9ArnTRKX/netc6r0VDTrMf/eZvzOlTC0XY9tf+7ys1L3fvqEyV3qCy/yvaScvOz9HffXKL5KyptJdXet45r4wPbFWhut5Wk+rb92nHqV7bXB2fvKwIsAAAAAAAAAAAuihNgdTYHKxQM6ZNV/yKvO3WLobQtIThx+hhNri6Wx5s5qxKaezH3ZO5tJIwuztM3H7tJt6+7WmfqW/Xi5r3avf2YxpT5devXFum+DTeooCg10BlqC1ZW6ts/W6PCxL1temC7c5i2qZlzQ6WmZZdcntRnI8eTr3F5M2wvyV+Yo2/915oLhlfGuIpCZWV7bC+V+cwct9/2+kB2BQAAAAAAAADAxXOlb1U3s0Bbbcse20tKyxKCJiCaOqdUxw816eCuk7Y68hpPtjkhR+XMYkUjMTU3Bu2ZoWfCs3U//isnHHr8/m363027tXdHnfa8UatXtuzXsX2ndc2nqjVlVolz/XMbdzmvQ8UsGfi331iim760QHWJn9OG+57XoT81qO5wk97eelgzFpTpmtuqNWac35ndlO4lBd9r+L1C8eaU5QMn5s9VWX7PAOvuB6/TJBs6mqUCN37vFW3+yVt6+vGdOvxeg8qnjtGj67fqbEObc013ZvpiW7hJ5zpO2MqFkGABAAAAAAAAAHDx0ju+Ho9Jk0bNsb1Og54u1RVenThyNqPCqy7mnsy9mXsczplYy26eofKpRXrih6/pwDv1ttrJLBlYMbN4WJc2NDOaFt8wVS888Z4evudZJ9zrYtqmZs6Za8y16dbSccZZXvJ85f7ZtpVUfXW5ps8vc9omcHzo7t85oV+bXSpw/9sn9IMv/1aN9a1O/0LK8nouSwgAAAAAAAAAADKLyQ6a2xtsL2lQAdb54VX3kCaTmHsb7hBr8Q3TdHTfaf3ptRpbSTIBljmmzRtnK0OvbHKhtv5yj57+2c5eZ1eZmjlnrjHXpltHNNC5sdt5RmX3/PfPXlxuW9Lmn+5w9gzrYv6/ejt8+Vn2iqSi3OTnAAAAAAAAAACAzGSyg45YzxXXXGtXbbykteIqqsZqyuwSxRPvNsu89WfXK8dsa2jMW15hWxc2uiTPeT2y55SO7T/jtIfKw8/dpTefP6Rf/ccbtjKyNmz7nLNMYX9LFXaFa+uu3WQr6fHrvfcr15dre51urPwnuV1e2+v0+fuX66rrpjjt9bc8qUBLh9M2zL+hNz//7kt696WjttcpFo/omaMP2h4AAAAAAAAAAMhUoWBIn67+N9vrdMkzsFx2Obhuk2oymgnbjK57H0px8826vmEf5i6r0F9+5krbGx5m1lJXUNV1mNpQcpld2Aagoz1iW4mH0zOw92TleGwrKRpPfg4AAAAAAAAAAMhQ8XivGcIlB1hm/6aaA41Ouz0YdmZY9XUMtd6+5/lHsLXDCdvMPQ/H3lOnjreofFr/yxXe+tVFmrN0ku0ND7PHVPcAq2vfqaGS485LPIMx2+sUivbcx6qhptm2pBkLUu9pw33Pf3i8smW/rUpnG3rOAGzv5bMBAAAAAAAAAEBmMROCTIbQ3SUHWMbh9xqcQGhcRWGPsCGTmHsbP2W0c6/mnofDjt8fcpZYnP0XE22lp6VrZqh4gl+7Xx36gK83ZpnAdC8VeCG53vzOWWnnaW4/aVtJJmzsctOXFsjtSc6WO7jrpHOY5R+nze2cMRbuiOrInp4/09aOoV0iEgAAAAAAAAAADF488ZXr9dte0qACLKMrxDIBUSaGWCMRXhkvP7VPdYebdNe3lmjmovG22ikr26Pr75qjT69b7NzXi7/Za89cvgqySxWLpQZYZ0Kp+1YZp+taPtzPqnhCgf7xkb9R1VXjlVeQLX9hjqoWjtc3Hr3R+Zkabz1/SJFw6swuoyF4yLYAAAAAAAAAAECmMtnBqJxS20sadIBlnB9iDfVeShfD3MtIhFeGCVUeW79VzY1B3fPQan394et12z2f0Be/c40efOpOZ3ZR69mQ/vtf/6BopGcAc7mZUFCtaDR1X6qG4EHbSvXkv7/uBFnGpBljde8PV+v7Wz6jB/7nTt37o9Uqqyx0zrU0hfTMz99x2t2dusBnp+p/jzIAAAAAAAAAANBd+sbXTXZgMoTu0hJgGSYgOrrvTEaFMeZeRiK86nL2dEA/+toz+vV/vunMJlp5e7Xmr6hUR3vU2cPp+//wtBpPttmrh17X3le97XfV17l0mDjqSsWjqQ90a+SMGgI9Z0oFWjr00N2/07sv95yh1aX2YKN+vPZZtZ5rt5Wk+rb9CkTP2V4f4snlCQEAAAAAAAAAwAClc3w98VkT/LNsJ8m1dtVGpqF8DGzY9jnbSura/6qvc+m09YPH1Bw5Ia/XayuS3ztW15R/RW5XsnY+M4vuiitLVT61SAVFPrU0BfX6s+9r3x9P2CtSxeIRba19RKFos630wezJ5SLEAgAAAAAAAADgoqRpfD0Siagoa6JWVn7ZVpIIsDBsGoO1euGDR+Tz5dlKp4n587Sg5GbbG5x3Tm1Rbdtu2+sb+RUAAAAAAAAAAJfAJEtpGF8PBgNaPfnrKvKV20pS2pYQBPozxjdR4/OnKxIO20qn2rZd2t/0su1dOvMZAw2vDCe8Ir4FAAAAAAAAAGDgnNkhtj0I4XBY5f5ZvYZXBgEWhtXV5XfIHctOPN+pydGBcy9px8lfKhztuadVf8x73jz5pPMZFy3xS9btVgAAAAAAAAAAQC+csf00LG1mPscV9WrR+NtspScCLAyrHI9fSyd9Vu2hnkFVffCAXqx7VPVtB2ylf+Za856G4Pu2cvG6ZmJ1D9UAAAAAAAAAAIAdP3eyqzRMvUoIhUJaUfEF5XjzbaUn9sDCiDjY9Jp21j8tn6/3h3NMToWKcydrdE658rNGK8dd4NRDsVYFwk06216n06Ejamw/5tTTxqbHaQqRAQAAAAAAAAD4SPpwnDzNA+bBYJsWlt2saUVLbKV3BFgYMZ0h1m+Vm+tLW2oLAAAAAAAAAAAyj5nFFQoFddX4WzV19GJbvTCWEMSIMenq8klfUEd7WJFw2FYBAAAAAAAAAMDlJBwOKxKKaEXFFwcUXhkEWBhR4/1VWjNtvUp9MxQIBJwgi72oAAAAAAAAAAD46ItEIs7Y/zhflW6csV5l+dPtmf6xhCAyRmOwRu+efEanAh/I4/bI4/XI5XI7ywt2HQAAAAAAAAAAIMPE487kFPMVi8UVjUYUi0ZVkj9Z80vXqMhXbi8cOAIsZJyOaFBHz72jutY/K9BxVu2JfjgWUiwetVcAAAAAAAAAAIBM4XZ5lO3xKdvtU152kcoLqlVZOF9Zif6lIsACAAAAAAAAAABARmEPLAAAAAAAAAAAAGQUAiwAAAAAAAAAAABkFAIsAAAAAAAAAAAAZBQCLAAAAAAAAAAAAGQUAiwAAAAAAAAAAABkEOn/AShju5kNrojSAAAAAElFTkSuQmCC;" vertex="1" parent="1">
          <mxGeometry x="-579" y="-210" width="898" height="24.14" as="geometry" />
        </mxCell>
        <mxCell id="H_vDy73RLhmVP92egl3P-7" value="&lt;font style=&quot;font-size: 12px;&quot;&gt;(number of moves counter)&lt;/font&gt;" style="text;html=1;align=center;verticalAlign=middle;whiteSpace=wrap;rounded=0;fontSize=16;strokeWidth=0;strokeColor=default;" vertex="1" parent="1">
          <mxGeometry x="-215" y="-154" width="158" height="30" as="geometry" />
        </mxCell>
        <mxCell id="H_vDy73RLhmVP92egl3P-8" value="&lt;font style=&quot;font-size: 12px;&quot;&gt;(player score counter)&lt;/font&gt;" style="text;html=1;align=center;verticalAlign=middle;whiteSpace=wrap;rounded=0;fontSize=16;strokeColor=default;strokeWidth=0;" vertex="1" parent="1">
          <mxGeometry x="-215" y="-117" width="148" height="30" as="geometry" />
        </mxCell>
        <mxCell id="H_vDy73RLhmVP92egl3P-12" value="Configuration 1" style="rounded=0;whiteSpace=wrap;html=1;fillColor=#808080;" vertex="1" parent="1">
          <mxGeometry x="13.5" y="5" width="102" height="27" as="geometry" />
        </mxCell>
        <mxCell id="H_vDy73RLhmVP92egl3P-13" value="Configuration 2" style="rounded=0;whiteSpace=wrap;html=1;fillColor=#808080;" vertex="1" parent="1">
          <mxGeometry x="13.5" y="40" width="102" height="27" as="geometry" />
        </mxCell>
        <mxCell id="H_vDy73RLhmVP92egl3P-14" value="Configuration 3" style="rounded=0;whiteSpace=wrap;html=1;fillColor=#808080;" vertex="1" parent="1">
          <mxGeometry x="13.5" y="75" width="102" height="27" as="geometry" />
        </mxCell>
        <mxCell id="H_vDy73RLhmVP92egl3P-15" value="Undo Swap" style="rounded=0;whiteSpace=wrap;html=1;fillColor=#808080;" vertex="1" parent="1">
          <mxGeometry x="-222" y="64" width="95" height="27" as="geometry" />
        </mxCell>
        <mxCell id="H_vDy73RLhmVP92egl3P-16" value="&lt;font style=&quot;font-size: 12px;&quot;&gt;2. Undo a swap&lt;/font&gt;" style="text;html=1;align=center;verticalAlign=middle;whiteSpace=wrap;rounded=0;fontSize=16;" vertex="1" parent="1">
          <mxGeometry x="-258.5" y="96" width="168" height="18" as="geometry" />
        </mxCell>
        <mxCell id="H_vDy73RLhmVP92egl3P-17" value="&lt;font style=&quot;font-size: 12px;&quot;&gt;3. Reset to initial configuration&lt;/font&gt;" style="text;html=1;align=center;verticalAlign=middle;whiteSpace=wrap;rounded=0;fontSize=16;" vertex="1" parent="1">
          <mxGeometry x="133" y="-51" width="168" height="18" as="geometry" />
        </mxCell>
        <mxCell id="H_vDy73RLhmVP92egl3P-18" value="&lt;font style=&quot;font-size: 12px;&quot;&gt;4. Choose configuration&lt;/font&gt;" style="text;html=1;align=center;verticalAlign=middle;whiteSpace=wrap;rounded=0;fontSize=16;" vertex="1" parent="1">
          <mxGeometry x="122" y="40" width="168" height="18" as="geometry" />
        </mxCell>
        <mxCell id="H_vDy73RLhmVP92egl3P-19" value="Reset Puzzle" style="rounded=0;whiteSpace=wrap;html=1;fillColor=#808080;" vertex="1" parent="1">
          <mxGeometry x="13.5" y="-51" width="102" height="27" as="geometry" />
        </mxCell>
      </root>
    </mxGraphModel>
  </diagram>
</mxfile>
